<!--Generated by EdrawMax, SVG Export eric_logo.svg 页-1-->
<svg xmlns:ed="https://www.edrawsoft.cn/xml/2017/SVGExtensions/" xmlns="http://www.w3.org/2000/svg" height="810" viewBox="0 0 4173 810" xmlns:xlink="http://www.w3.org/1999/xlink" width="4173" xmlns:ev="http://www.w3.org/2001/xml-events"><defs/><g ed:name="页-1" transform="translate(5.5,5.5)" id="page1"><rect x="0" y="0" fill="none" height="800" width="4163"/><g transform="translate(2681.185039,37.850394)" id="shape1"><text style="fill:#191919;font-family:Helvetica Neue,PingFang SC,Mircrosoft YaHei,Arial;font-size:600px" xml:space="preserve"><tspan x="4.2" y="592.0" textLength="1362.0">ERIC</tspan></text></g><g transform="translate(37.952756,64.350394)" id="group2"><g transform="translate(39.066526,65.423826)" id="group4"><path d="M20.0,37.8L244.6,37.8L264.6,18.9L244.6,.0L20.0,.0L.0,18.9L20.0,37.8z" fill="#000000" fill-rule="nonzero" transform="matrix(0.000000,-1.000000,-1.000000,0.000000,221.136074,566.777174)" id="shape5"/><g transform="translate(0.000066,0.000066)" id="group6"><path d="M20.0,37.8L244.6,37.8L264.6,18.9L244.6,.0L20.0,.0L.0,18.9L20.0,37.8z" fill="#000000" fill-rule="nonzero" transform="matrix(0.707107,-0.707107,-0.707107,-0.707107,230.737733,200.464878)" id="shape7"/><path d="M20.0,37.8L244.6,37.8L264.6,18.9L244.6,.0L20.0,.0L.0,18.9L20.0,37.8z" fill="#000000" fill-rule="nonzero" transform="matrix(-0.707107,-0.707107,-0.707107,0.707107,200.464878,173.739682)" id="shape8"/></g><g transform="translate(0.000374,217.116859)" id="group9"><path d="M20.0,37.8L244.6,37.8L264.6,18.9L244.6,.0L20.0,.0L.0,18.9L20.0,37.8z" fill="#000000" fill-rule="nonzero" transform="matrix(0.707107,0.707107,-0.707107,0.707107,230.735804,-13.360869)" id="shape10"/><path d="M20.0,37.8L244.6,37.8L264.6,18.9L244.6,.0L20.0,.0L.0,18.9L20.0,37.8z" fill="#000000" fill-rule="nonzero" transform="matrix(-0.707107,0.707107,-0.707107,-0.707107,200.464783,13.364319)" id="shape11"/></g><g transform="translate(434.563000,0.000300)" id="group12"><path d="M20.0,37.8L244.6,37.8L264.6,18.9L244.6,.0L20.0,.0L.0,18.9L20.0,37.8z" fill="#000000" fill-rule="nonzero" transform="matrix(0.000000,-1.000000,-1.000000,0.000000,221.136074,566.777574)" id="shape13"/><g transform="translate(0.000066,0.000066)" id="group14"><path d="M20.0,37.8L244.6,37.8L264.6,18.9L244.6,.0L20.0,.0L.0,18.9L20.0,37.8z" fill="#000000" fill-rule="nonzero" transform="matrix(0.707107,-0.707107,-0.707107,-0.707107,230.737733,200.464878)" id="shape15"/><path d="M20.0,37.8L244.6,37.8L264.6,18.9L244.6,.0L20.0,.0L.0,18.9L20.0,37.8z" fill="#000000" fill-rule="nonzero" transform="matrix(-0.707107,-0.707107,-0.707107,0.707107,200.464878,173.739682)" id="shape16"/></g><g transform="translate(0.000374,217.117259)" id="group17"><path d="M20.0,37.8L244.6,37.8L264.6,18.9L244.6,.0L20.0,.0L.0,18.9L20.0,37.8z" fill="#000000" fill-rule="nonzero" transform="matrix(0.707107,0.707107,-0.707107,0.707107,230.735804,-13.360869)" id="shape18"/><path d="M20.0,37.8L244.6,37.8L264.6,18.9L244.6,.0L20.0,.0L.0,18.9L20.0,37.8z" fill="#000000" fill-rule="nonzero" transform="matrix(-0.707107,0.707107,-0.707107,-0.707107,200.464783,13.364319)" id="shape19"/></g></g></g><g transform="translate(925.551473,40.449000)" id="shape20"><text style="font-family:Arial,PingFang SC,Mircrosoft YaHei,Arial;font-size:13px" xml:space="preserve"><tspan x="4.0" style="fill:#000000;font-family:Helvetica Neue,PingFang SC,Mircrosoft YaHei,Arial;font-size:141px;font-weight:bold" y="142.0" textLength="1552.0">Reinforcement Learning </tspan></text><text style="font-family:Arial,PingFang SC,Mircrosoft YaHei,Arial;font-size:13px" xml:space="preserve"><tspan x="4.5" style="fill:#000000;font-family:Helvetica Neue,PingFang SC,Mircrosoft YaHei,Arial;font-size:141px;font-weight:bold" y="310.0" textLength="1339.0">Evolution Foundation</tspan></text></g><g transform="translate(926.051473,452.201000)" id="shape21"><text style="font-family:Arial,PingFang SC,Mircrosoft YaHei,Arial;font-size:13px" xml:space="preserve"><tspan x="4.0" style="fill:#191919;font-family:微软雅黑,PingFang SC,Mircrosoft YaHei,Arial;font-size:133px" y="142.0" textLength="1509.0">强 化 学 习 演 进 基 金 会</tspan></text></g><path d="M.0,.0L1492.9,.0" stroke="#191919" fill="none" stroke-width="13.333333015441895" transform="translate(935.433071,403.042747)" id="shape22"/></g><path d="M.0,.0L.0,510.2" stroke="#191919" fill="none" stroke-width="13.333333015441895" transform="translate(2611.068898,144.732283)" id="shape23"/><path d="M122.2,146.1L75.6,112.8L29.0,146.1L45.4,91.0L.0,56.4L56.7,55.1L75.6,.0L94.5,55.1L151.2,56.4L105.8,91.0L122.2,146.1z" stroke="#ff7e37" fill="#ff7e37" stroke-width="1" fill-rule="nonzero" transform="translate(3765.543307,326.779528)" id="shape24"/></g></svg>